<svg xmlns="http://www.w3.org/2000/svg" width="64" height="64" fill="none"><path d="M 7.864 17 C 7.864 8.163 15.028 1 23.864 1 C 32.701 1 39.864 8.163 39.864 17 L 39.864 46.446 L 35.354 46.446 L 35.354 17.681 L 35.311 17.681 C 35.34 17.391 35.354 17.096 35.354 16.799 C 35.354 11.731 31.137 7.622 25.934 7.622 C 20.731 7.622 16.514 11.731 16.514 16.799 C 16.514 17.096 16.528 17.391 16.557 17.681 L 16.514 17.681 L 16.514 64.215 C 11.376 61.553 7.864 56.187 7.864 50 Z M 23.864 66 C 21.779 66 19.786 65.601 17.959 64.875 L 29.769 64.875 C 27.942 65.601 25.95 66 23.864 66 Z" fill="rgb(26, 43, 184)"></path><g><defs><linearGradient id="idid_R_nnOC5U4g1556405257" x1="0.49751243781094523" x2="0.5024875621890548" y1="0" y2="1"><stop offset="0" stop-color="rgba(255, 234, 0, 0.45)" stop-opacity="0.45"></stop><stop offset="1" stop-color="rgba(255, 245, 138, 0.5)" stop-opacity="0.5"></stop></linearGradient></defs><path d="M 35.455 41.859 L 34.455 42.729 C 34.853 43.135 35.225 43.582 35.566 44.071 L 18.08 58.737 C 16.24 55.942 15.788 52.449 16.575 49.208 C 16.619 48.494 16.721 47.781 16.881 47.077 L 16.838 47.093 C 16.151 44.781 16.227 42.39 16.916 40.267 L 16.515 40.267 C 16.522 39.627 16.581 39 16.686 38.393 L 16.515 38.393 C 16.522 37.752 16.581 37.126 16.686 36.518 L 16.515 36.518 C 16.522 35.878 16.581 35.251 16.686 34.643 L 16.515 34.643 C 16.522 34.003 16.581 33.376 16.686 32.769 L 16.515 32.769 C 16.522 32.128 16.581 31.502 16.686 30.894 L 16.515 30.894 C 16.522 30.254 16.581 29.627 16.686 29.02 L 16.515 29.02 C 16.522 28.379 16.581 27.753 16.686 27.145 L 16.515 27.145 C 16.522 26.505 16.581 25.878 16.686 25.271 L 16.515 25.271 C 16.522 24.63 16.581 24.004 16.686 23.396 L 16.515 23.396 C 16.523 22.641 16.603 21.905 16.748 21.196 L 16.515 21.196 C 16.516 21.088 16.519 20.979 16.523 20.871 L 16.515 20.871 C 16.519 20.457 16.546 20.048 16.592 19.647 L 16.515 19.647 C 16.518 19.318 16.536 18.993 16.566 18.672 L 16.515 18.672 C 16.578 12.986 20.701 8.4 25.778 8.4 C 30.855 8.4 34.977 12.986 35.041 18.672 L 34.99 18.672 C 35.02 18.993 35.037 19.318 35.041 19.647 L 34.964 19.647 C 35.01 20.048 35.036 20.457 35.041 20.871 L 35.033 20.871 C 35.037 20.979 35.04 21.088 35.041 21.196 L 34.808 21.196 C 34.952 21.905 35.033 22.641 35.041 23.396 L 34.869 23.396 C 34.975 24.004 35.034 24.63 35.041 25.271 L 34.869 25.271 C 34.975 25.878 35.034 26.505 35.041 27.145 L 34.869 27.145 C 34.975 27.753 35.034 28.379 35.041 29.02 L 34.869 29.02 C 34.975 29.627 35.034 30.254 35.041 30.894 L 34.869 30.894 C 34.975 31.502 35.034 32.128 35.041 32.769 L 34.869 32.769 C 34.975 33.376 35.034 34.003 35.041 34.643 L 34.869 34.643 C 34.975 35.251 35.034 35.878 35.041 36.518 L 34.869 36.518 C 34.975 37.126 35.034 37.752 35.041 38.393 L 34.869 38.393 C 34.975 39 35.034 39.627 35.041 40.267 L 34.608 40.267 C 34.824 40.484 35.033 40.713 35.234 40.955 L 34.951 41.238 C 35.128 41.433 35.296 41.64 35.455 41.859 Z M 35.523 41.954 C 35.523 41.954 35.524 41.955 35.524 41.955 L 35.523 41.953 C 35.523 41.953 35.523 41.954 35.523 41.954 Z M 35.323 41.063 C 35.323 41.063 35.323 41.064 35.324 41.064 L 35.321 41.061 C 35.322 41.062 35.322 41.062 35.323 41.063 Z" fill="url(#idid_R_nnOC5U4g1556405257)"></path></g></svg>